<svg height="128" viewBox="0 0 512 512" width="72" xmlns="http://www.w3.org/2000/svg" xmlns:xlink="http://www.w3.org/1999/xlink">
				<linearGradient id="a" gradientUnits="userSpaceOnUse" x1="74.9807" x2="437.0193" y1="74.9807" y2="437.0193">
								<stop offset=".0053" stop-color="#5bc980" />
								<stop offset="1" stop-color="#00ab5e" />
				</linearGradient>
				<linearGradient id="b" gradientUnits="userSpaceOnUse" x1="157.0286" x2="329.1901" y1="145.7214" y2="317.8828">
								<stop offset="0" stop-color="#faecd8" />
								<stop offset="1" stop-color="#f4d7af" />
				</linearGradient>
				<linearGradient id="c">
								<stop offset="0" stop-color="#c6715a" />
								<stop offset="1" stop-color="#8c4a37" />
				</linearGradient>
				<linearGradient id="d" gradientUnits="userSpaceOnUse" x1="114.2031" x2="225.9219" xlink:href="#c" y1="275.0573" y2="386.776" />
				<linearGradient id="e">
								<stop offset=".0053" stop-color="#575f64" />
								<stop offset="1" stop-color="#32393f" />
				</linearGradient>
				<linearGradient id="f" gradientUnits="userSpaceOnUse" x1="182.9531" x2="208.7344" xlink:href="#e" y1="309.4323" y2="335.2135" />
				<linearGradient id="g" gradientUnits="userSpaceOnUse" x1="234.5156" x2="380.6094" xlink:href="#e" y1="257.8698" y2="403.9635" />
				<linearGradient id="h" gradientUnits="userSpaceOnUse" x1="249.6837" x2="361.4025" y1="277.0767" y2="388.7954">
								<stop offset=".0053" stop-color="#9bfcff" />
								<stop offset="1" stop-color="#76e2f8" />
				</linearGradient>
				<linearGradient id="i">
								<stop offset="0" stop-color="#00c0f1" />
								<stop offset="1" stop-color="#009ae4" />
				</linearGradient>
				<linearGradient id="j" gradientUnits="userSpaceOnUse" x1="264.508" x2="283.5859" xlink:href="#i" y1="304.5341" y2="323.6119" />
				<linearGradient id="k" gradientUnits="userSpaceOnUse" x1="317.4458" x2="342.735" xlink:href="#i" y1="321.5254" y2="346.8146" />
				<linearGradient id="l">
								<stop offset="0" stop-color="#fdbf00" />
								<stop offset="1" stop-color="#ff9100" />
				</linearGradient>
				<linearGradient id="m" gradientUnits="userSpaceOnUse" x1="334.5028" x2="391.6259" xlink:href="#l" y1="159.4581" y2="216.5812" />
				<linearGradient id="n">
								<stop offset=".0053" stop-color="#ff637b" />
								<stop offset="1" stop-color="#e63950" />
				</linearGradient>
				<linearGradient id="o" gradientUnits="userSpaceOnUse" x1="261.2771" x2="318.1842" xlink:href="#n" y1="159.6369" y2="216.544" />
				<linearGradient id="p" gradientUnits="userSpaceOnUse" x1="188.2658" x2="245.2442" xlink:href="#l" y1="159.6013" y2="216.5797" />
				<linearGradient id="q" gradientUnits="userSpaceOnUse" x1="120.1956" x2="172.0181" xlink:href="#n" y1="164.794" y2="216.6164" />
				<linearGradient id="r" gradientUnits="userSpaceOnUse" x1="183.4831" x2="330.1497" xlink:href="#c" y1="101.5065" y2="248.1732" />
				<linearGradient id="s" gradientUnits="userSpaceOnUse" x1="191.4036" x2="320.5963" y1="59.2109" y2="188.4036">
								<stop offset=".0053" stop-color="#ececf1" />
								<stop offset="1" stop-color="#d3d3d8" />
				</linearGradient>
				<path d="m512 256c0 141.386719-114.613281 256-256 256s-256-114.613281-256-256 114.613281-256 256-256 256 114.613281 256 256zm0 0" fill="url(#a)" />
				<path d="m384.90625 175.65625v86.511719l-128.90625 114.640625-25.78125 22.859375h-17.1875l-85.9375-137.5v-86.511719zm0 0" fill="url(#b)" />
				<path d="m213.03125 262.167969h-85.9375v137.5h85.9375v-68.75l-17.1875-8.59375 17.1875-8.59375zm0 0" fill="url(#d)" />
				<path d="m178.65625 313.730469h34.375v17.1875h-34.375zm0 0" fill="url(#f)" />
				<path d="m230.21875 262.167969h154.6875v137.5h-154.6875zm0 0" fill="url(#g)" />
				<path d="m367.71875 297.574219v84.90625h-60.671875l5.671875-17.1875-26.8125 17.1875h-38.5v-22.6875l17.1875-32.3125-8.59375 2.40625-8.59375 2.234375v-52.765625h42.28125l-7.046875 17.1875 29.046875-17.1875h47.953125l-9.109375 17.1875zm0 0" fill="url(#h)" />
				<path d="m311.6875 279.355469-55.6875 69.609375-8.59375 10.828125v-27.671875l8.59375-10.65625 33.6875-42.109375zm0 0" fill="url(#j)" />
				<path d="m367.71875 279.355469h-8.101562l-73.664063 103.125h21.117187l60.648438-84.910157zm0 0" fill="url(#k)" />
				<path d="m328.761719 175.65625-16.902344 6.445312 16.902344 8.59375c0 20.171876 16.636719 36.523438 36.808593 36.523438 20.171876 0 37.09375-16.351562 37.09375-36.523438v-15.039062l-52.132812-17.1875zm0 0" fill="url(#m)" />
				<path d="m256 175.65625-17.1875 6.445312 17.1875 8.59375c0 20.171876 16.351562 36.523438 36.523438 36.523438 20.171874 0 36.238281-16.351562 36.238281-36.523438v-15.039062l-35.164063-17.1875zm0 0" fill="url(#o)" />
				<path d="m182.667969 175.65625-16.902344 6.445312 16.902344 8.59375c0 20.171876 16.636719 36.523438 36.808593 36.523438 20.171876 0 36.523438-16.351562 36.523438-36.523438v-15.039062l-37.597656-17.1875zm0 0" fill="url(#p)" />
				<path d="m109.332031 175.65625v15.039062c0 20.171876 16.925781 36.523438 37.097657 36.523438 20.171874 0 36.234374-16.351562 36.234374-36.523438v-15.039062l-38.382812-17.1875zm0 0" fill="url(#q)" />
				<path d="m402.667969 175.65625h-293.335938l34.949219-34.375 21.484375-17.761719h188.03125l13.921875 17.761719zm0 0" fill="url(#r)" />
				<path d="m144.28125 106.332031h223.4375v34.949219h-223.4375zm0 0" fill="url(#s)" />
</svg>
