<?xml version="1.0" encoding="iso-8859-1"?>
<!-- Generator: Adobe Illustrator 21.0.0, SVG Export Plug-In . SVG Version: 6.00 Build 0)  -->
<svg xmlns="http://www.w3.org/2000/svg" xmlns:xlink="http://www.w3.org/1999/xlink" version="1.1" id="Capa_1" x="0px" y="0px" viewBox="0 0 512 512" style="enable-background:new 0 0 512 512;" xml:space="preserve" width="72" height="128">
<g>
	<circle style="fill:#30CBEF;" cx="256" cy="256" r="256"/>
	<path style="fill:#00AABC;" d="M511.91,262.777L362.133,113L149.867,263.82l69.824,69v21.492h-7.074l-27-27.93L113,399   l111.014,111.014C234.493,511.32,245.167,512,256,512C395.119,512,508.317,401.029,511.91,262.777z"/>
	<g>
		<rect x="283.93" y="354.313" style="fill:#FE3B7F;" width="50.832" height="16.758"/>
		<rect x="177.238" y="354.313" style="fill:#FF6E84;" width="50.832" height="16.758"/>
		<rect x="247.621" y="255.441" style="fill:#FF6E84;" width="16.758" height="79.32"/>
		<rect x="256" y="255.441" style="fill:#FE3B7F;" width="8.379" height="79.32"/>
		<path style="fill:#80C9FF;" d="M362.133,263.82H149.867V113h212.266V263.82z"/>
		<rect x="256" y="113" style="fill:#4DB2FF;" width="106.133" height="150.82"/>
		<path style="fill:#CCF0FF;" d="M362.133,263.82H149.867V113h212.266V263.82z M166.625,247.063h178.75V129.758h-178.75V247.063z"/>
		<path style="fill:#266CB2;" d="M245.945,213.547h-62.563v-67.031h62.563V213.547z"/>
		<rect x="266.055" y="146.516" style="fill:#114378;" width="62.563" height="16.758"/>
		<rect x="266.055" y="180.031" style="fill:#114378;" width="40.219" height="16.758"/>
		<rect x="266.055" y="213.547" style="fill:#114378;" width="56.977" height="16.758"/>
		<path style="fill:#FFC474;" d="M292.309,399h-72.617v-72.617h72.617V399z"/>
		<path style="fill:#FFC474;" d="M185.617,399H113v-72.617h72.617V399z"/>
		<path style="fill:#FFB742;" d="M399,399h-72.617v-72.617H399V399z"/>
		<polygon style="fill:#80C9FF;" points="256,129.758 345.375,129.758 345.375,247.063 256,247.063 256,263.82 362.133,263.82     362.133,113 256,113   "/>
		<path style="fill:#FFB742;" d="M292.309,399H256v-72.617h36.309V399z"/>
	</g>
</g>















</svg>
